<svg version="1.2" xmlns="http://www.w3.org/2000/svg" viewBox="0 0 200 200" width="200" height="200"><style>.a{fill:#050505}.b{fill:#fdfcf5}.c{fill:#fba534}</style><path class="a" d="m100 181.4c43.8 0 77.5-22.1 77.5-63.5v-93.9h-58.2v86.4c0 14.7-6.5 21.7-19.3 21.7-12.8 0-19.3-7-19.3-21.7v-86.4h-58.2v93.9c0 41.4 33.7 63.5 77.5 63.5z"/><path class="b" d="m100 175.3c42.1 0 74.4-21.3 74.4-61v-90.1h-55.9v82.9c0 14.1-6.3 20.8-18.5 20.8-12.2 0-18.5-6.7-18.5-20.8v-82.9h-55.9v90.1c0 39.7 32.3 61 74.4 61z"/><path class="a" d="m100 169.2c40.3 0 71.3-20.4 71.3-58.5v-86.3h-53.6v79.5c0 13.5-6 19.9-17.7 19.9-11.8 0-17.8-6.4-17.8-19.9v-79.5h-53.6v86.3c0 38.1 31.1 58.5 71.4 58.5z"/><path class="b" d="m100 163.1c38.5 0 68.2-19.5 68.2-55.9v-82.6h-51.3v76c0 12.9-5.7 19.1-16.9 19.1-11.3 0-17-6.2-17-19.1v-76h-51.3v82.6c0 36.4 29.7 55.9 68.3 55.9z"/><path class="a" d="m100 157c36.8 0 65.1-18.6 65.1-53.4v-78.8h-49v72.6c0 12.3-5.4 18.2-16.1 18.2-10.8 0-16.2-5.9-16.2-18.2v-72.6h-49v78.8c0 34.8 28.4 53.4 65.2 53.4z"/><path class="b" d="m99.5 150.9c35 0 62-17.7 62-50.8v-75.1h-46.6v69.1c0 11.8-5.2 17.3-15.4 17.3-10.2 0-15.4-5.5-15.4-17.3v-69.1h-46.7v75.1c0 33.1 27 50.8 62.1 50.8z"/><path class="a" d="m99.5 144.8c33.3 0 58.9-16.8 58.9-48.3v-71.3h-44.3v65.7c0 11.1-4.9 16.4-14.6 16.4-9.7 0-14.7-5.3-14.7-16.4v-65.7h-44.3v71.3c0 31.5 25.7 48.3 59 48.3z"/><path class="b" d="m99.5 138.7c31.5 0 55.8-15.9 55.8-45.7v-67.6h-42v62.2c0 10.6-4.7 15.6-13.8 15.6-9.2 0-13.9-5-13.9-15.6v-62.2h-42v67.6c0 29.8 24.3 45.7 55.9 45.7z"/><path class="a" d="m99.5 131.6c29.8 0 52.7-15 52.7-43.2v-63.8h-39.6v58.7c0 10-4.5 14.8-13.1 14.8-8.7 0-13.1-4.8-13.1-14.8v-58.7h-39.7v63.8c0 28.2 23 43.2 52.8 43.2z"/><path class="c" d="m99.5 124.5c28 0 49.6-14.1 49.6-40.6v-60.1h-37.3v55.3c0 9.4-4.2 13.9-12.3 13.9-8.2 0-12.4-4.5-12.4-13.9v-55.3h-37.3v60.1c0 26.5 21.6 40.6 49.7 40.6z"/></svg>