<?xml version="1.0" encoding="UTF-8"?>
<svg width="752pt" height="752pt" version="1.1" viewBox="0 0 752 752" xmlns="http://www.w3.org/2000/svg">
 <g>
  <path d="m531.02 500.2c28.188-35.27 43.598-79.047 43.719-124.2-0.48047-52.391-21.445-102.52-58.414-139.65-36.965-37.133-86.996-58.32-139.39-59.035-40.516 0.042969-80.066 12.359-113.45 35.32-33.379 22.965-59.016 55.504-73.535 93.324-15.199 40.355-16.855 84.559-4.7227 125.93 12.133 41.379 37.398 77.688 71.98 103.45 34.578 25.758 76.602 39.57 119.72 39.344 29.602-0.19922 58.785-6.9844 85.438-19.871 26.652-12.883 50.102-31.539 68.645-54.613zm-155.02 40.219c-43.871-0.44922-85.785-18.242-116.59-49.492-30.797-31.25-47.98-73.418-47.797-117.29 1.0469-43.207 18.906-84.301 49.777-114.55 30.867-30.25 72.316-47.266 115.54-47.434v77.414c30.766 0.42969 59.016 17.09 74.277 43.809 15.258 26.719 15.258 59.516 0 86.234-15.262 26.719-43.512 43.383-74.277 43.812v77.43z"/>
  <path d="m288.98 376c0.20703 23.172 9.5703 45.316 26.047 61.605 16.48 16.289 38.734 25.395 61.906 25.332v-173.87c-23.172-0.0625-45.426 9.043-61.906 25.332-16.477 16.285-25.84 38.434-26.047 61.602z"/>
 </g>
</svg>
