<?xml version="1.0" encoding="UTF-8" standalone="no"?>
<!-- Created with Inkscape (http://www.inkscape.org/) -->

<svg
   xmlns:dc="http://purl.org/dc/elements/1.1/"
   xmlns:cc="http://creativecommons.org/ns#"
   xmlns:rdf="http://www.w3.org/1999/02/22-rdf-syntax-ns#"
   xmlns:svg="http://www.w3.org/2000/svg"
   xmlns="http://www.w3.org/2000/svg"
   xmlns:sodipodi="http://sodipodi.sourceforge.net/DTD/sodipodi-0.dtd"
   xmlns:inkscape="http://www.inkscape.org/namespaces/inkscape"
   width="113.80882mm"
   height="76.561195mm"
   viewBox="0 0 403.25958 271.27982"
   id="svg5098"
   version="1.1"
   inkscape:version="0.91 r13725"
   sodipodi:docname="grackle.svg"
   inkscape:export-filename="/home/algot/Documents/runeman.org/clipart/2018/grackle-png"
   inkscape:export-xdpi="60.22303"
   inkscape:export-ydpi="60.22303">
  <title
     id="title5146">Grackle</title>
  <defs
     id="defs5100" />
  <sodipodi:namedview
     id="base"
     pagecolor="#ffffff"
     bordercolor="#666666"
     borderopacity="1.0"
     inkscape:pageopacity="0.0"
     inkscape:pageshadow="2"
     inkscape:zoom="0.70710678"
     inkscape:cx="279.75958"
     inkscape:cy="136.16953"
     inkscape:document-units="px"
     inkscape:current-layer="layer1"
     showgrid="false"
     inkscape:window-width="1366"
     inkscape:window-height="712"
     inkscape:window-x="0"
     inkscape:window-y="0"
     inkscape:window-maximized="1"
     fit-margin-top="0"
     fit-margin-left="0"
     fit-margin-right="0"
     fit-margin-bottom="0" />
  <metadata
     id="metadata5103">
    <rdf:RDF>
      <cc:Work
         rdf:about="">
        <dc:format>image/svg+xml</dc:format>
        <dc:type
           rdf:resource="http://purl.org/dc/dcmitype/StillImage" />
        <dc:title>Grackle</dc:title>
        <dc:date>2018-07-21</dc:date>
        <dc:creator>
          <cc:Agent>
            <dc:title>Algot Runeman</dc:title>
          </cc:Agent>
        </dc:creator>
        <dc:rights>
          <cc:Agent>
            <dc:title>Algot Runeman</dc:title>
          </cc:Agent>
        </dc:rights>
        <dc:publisher>
          <cc:Agent>
            <dc:title>runeman.org</dc:title>
          </cc:Agent>
        </dc:publisher>
        <dc:identifier>grackle.svg</dc:identifier>
        <cc:license
           rdf:resource="http://creativecommons.org/publicdomain/zero/1.0/" />
      </cc:Work>
      <cc:License
         rdf:about="http://creativecommons.org/publicdomain/zero/1.0/">
        <cc:permits
           rdf:resource="http://creativecommons.org/ns#Reproduction" />
        <cc:permits
           rdf:resource="http://creativecommons.org/ns#Distribution" />
        <cc:permits
           rdf:resource="http://creativecommons.org/ns#DerivativeWorks" />
      </cc:License>
    </rdf:RDF>
  </metadata>
  <g
     inkscape:label="Layer 1"
     inkscape:groupmode="layer"
     id="layer1"
     transform="translate(-87.740415,-303.8601)">
    <path
       style="fill:#000000;fill-rule:evenodd;stroke:#000000;stroke-width:1px;stroke-linecap:butt;stroke-linejoin:miter;stroke-opacity:1"
       d="m 142.5,311.3622 c 0,0 4.51325,-2.48958 7,-3 4.57136,-0.93831 9.33427,-4.0933 14,-4 4.16917,0.0834 8.33949,0.21888 12.5,0.5 3.50784,0.23702 7.12041,2.0308 10.5,3 2.86589,0.82193 5.48864,4.39315 8,6 1.79786,1.15033 3.37275,2.61884 5,4 3.41903,2.90196 6.70929,5.9533 10,9 3.54665,3.28366 10.5,10 10.5,10 l 6.5,9.5 3.5,10.5 c 0,0 5.85551,2.32303 8.5,4 8.39806,5.32554 15.53563,12.42945 23,19 5.48745,4.83036 10.37003,10.33654 16,15 5.87904,4.86977 12.31057,9.03136 18.5,13.5 2.32484,1.67849 7,5 7,5 0,0 -2.5,-2.5 -2.5,0 0,2.5 3.5,5 3.5,5 l -1.5,1.5 6.5,7 15.5,11.5 c 0,0 12.80686,9.32758 20,12.5 6.80781,3.00247 14.27657,4.21588 21.5,6 10.75847,2.65725 21.62068,4.89145 32.5,7 9.63009,1.86644 19.40185,2.97572 29,5 7.39632,1.55991 14.67286,3.64207 22,5.5 5.83833,1.48042 11.70944,2.84252 17.5,4.5 3.1926,0.91384 6.48163,1.61537 9.5,3 3.74147,1.71634 10.5,6.5 10.5,6.5 l 3.5,5.5 0,5 -3.5,3 c 0,0 -5.09066,1.43251 -7.5,2.5 -2.79732,1.23939 -5.56226,2.65107 -8,4.5 -1.50237,1.13949 -2.15473,3.61199 -4,4 -3.14998,0.66236 -5.82093,-4.00462 -9,-3.5 -2.33949,0.37135 -3.14407,4.25364 -5.5,4.5 -5.4121,0.56595 -9.05852,-7.46273 -14.5,-7.5 -1.49068,-0.0102 -2.5126,1.90068 -4,2 -6.15296,0.41086 -11.37246,-5.30642 -17.5,-6 -3.16396,-0.35813 -6.32015,1.16573 -9.5,1 -5.61475,-0.29264 -11.38073,-1.17532 -16.5,-3.5 -2.27629,-1.03368 -3.80143,-3.30992 -6,-4.5 -1.71557,-0.92863 -3.72681,-1.18677 -5.5,-2 -7.12184,-3.26623 -13.20219,-8.64855 -20.5,-11.5 -6.70224,-2.61874 -21,-5 -21,-5 l 13.5,19 -9.5,-6.5 -21.5,-8.5 -12,-4 5.5,11 1.5,3.5 -2.5,-1.5 0,1.5 -2.5,0 0.5,1 -2,0 1.5,2 -3,-1 1,1.5 -3,-0.5 1,2 -3.5,-1.5 -10,-4 -8,0 c -2.5,0 -10,7 -10,7 l -6,2.5 -7.5,14 -9,15.5 -5.5,13 c 0,0 4.68671,-1.18592 6.5,0 2.43599,1.59317 3.5,8 3.5,8 -2.83333,-3.66778 -5.66667,-4.98549 -8.5,-2 l -10.5,9.5 5,5.5 c 0,0 -3.5979,-0.0393 -5,-1 -1.79261,-1.22832 -3.5,-5.5 -3.5,-5.5 l -4.5,0 -20,12 -4.5,-3 -10.5,7.5 c 0,0 2.27235,-7.18365 5,-9.5 2.00867,-1.70578 7.5,-2.5 7.5,-2.5 l 15,-6.5 -6.5,-2 -4,3 -4,-1.5 -9,7.5 c 0,0 0.83252,-6.41918 3,-8.5 1.63531,-1.56992 6,-5 6,-5 l 5.5,0 8.5,1 8,-3 6.5,-3 0,-3.5 3.5,-3.5 1.5,-2.5 2.5,-1.5 14.5,-34 -8.5,-10 -4.5,-0.5 -7,3.5 -6.5,1.5 -5.5,-1 -3,-0.5 -3.5,3 c -9.20717,13.16667 -20.53152,26.33333 -23.5,39.5 l 2.5,9 6,6 -4,2 -8,-4 -4,3.5 -6.5,-2.5 c -2.30437,4.49421 -3.77357,8.82138 0.5,12 -5.19502,-2.561 -5.43287,-6.11343 -4,-10 l -9.5,7.5 -5.5,6.5 -3.5,-1.5 -3.5,9 c 0,0 -1.31867,-4.33113 -1,-6.5 0.56353,-3.83539 5,-10.5 5,-10.5 l 4,0 4,-3 -8.5,0 -5,2.5 -3.5,-1 -4,2 c 0,0 1.43151,-4.95958 3.5,-6 1.34828,-0.67817 4.5,0.5 4.5,0.5 l 14,-3.5 11,-4 8,-11.5 24.5,-38.5 c 0,0 -2.83657,-6.64954 -5,-9.5 -2.49472,-3.28697 -5.61831,-6.13526 -9,-8.5 -6.41368,-4.48494 -14.98524,-5.49274 -21,-10.5 -10.42653,-8.68003 -18.04965,-20.56482 -24.5,-32.5 -5.38906,-9.97147 -8.8349,-20.98322 -11.5,-32 -0.90897,-3.75742 -1.40569,-7.63535 -1.5,-11.5 -0.15094,-6.18506 -0.83972,-12.77257 1.5,-18.5 0.98454,-2.41007 3.24442,-4.07758 5,-6 1.74837,-1.91453 4.01704,-3.37325 5.5,-5.5 1.36489,-1.95743 3,-6.5 3,-6.5 l -8,-5.5 -8.5,-9 z"
       id="path5117"
       inkscape:connector-curvature="0"
       sodipodi:nodetypes="cssssssscccsssscsccccsssssssccccssssssssssssscccccccccccccccccccscccccsccccscccccsccccccsccccccccccccccccccccccccccccccscccccccscccccssssssssscccc" />
    <path
       style="fill:#000000;fill-rule:evenodd;stroke:#000000;stroke-width:1.04848731px;stroke-linecap:butt;stroke-linejoin:miter;stroke-opacity:1"
       d="m 143.475,311.38817 c 0,0 -22.69614,0.58609 -33.8156,2.60075 -6.13872,1.11223 -17.964538,5.20151 -17.964538,5.20151 l -2.641844,3.64106 c 14.089832,-3.98826 29.179672,-2.78131 43.269502,-0.12091 -12.3286,3.33607 -25.65721,2.79639 -37.985814,4.80226 0,0 2.571254,0.70006 4.22695,1.56046 4.986584,2.59131 10.792874,3.40816 16.379434,4.1612 8.90094,1.19981 26.9468,2.60076 26.9468,2.60076 z"
       id="path5119"
       inkscape:connector-curvature="0"
       sodipodi:nodetypes="csccccsscc" />
    <ellipse
       style="opacity:1;fill:#ffff00;fill-opacity:1;stroke:#b3b3b3;stroke-width:0.5;stroke-linecap:round;stroke-linejoin:bevel;stroke-miterlimit:4;stroke-dasharray:none;stroke-dashoffset:0;stroke-opacity:1"
       id="path5121"
       cx="167.75"
       cy="325.61221"
       rx="4.75"
       ry="3.75" />
    <ellipse
       ry="2.578125"
       rx="3.265625"
       cy="324.36221"
       cx="166.1875"
       id="ellipse5123"
       style="opacity:1;fill:#000000;fill-opacity:1;stroke:#b3b3b3;stroke-width:0.34375;stroke-linecap:round;stroke-linejoin:bevel;stroke-miterlimit:4;stroke-dasharray:none;stroke-dashoffset:0;stroke-opacity:1" />
  </g>
</svg>
