<svg version="1.2" xmlns="http://www.w3.org/2000/svg" viewBox="0 0 200 200" width="200" height="200"><style>.a{fill:#dda15e}.b{fill:#606c38}</style><path class="a" d="m95.7 108.8v-83.5h12.1v83.5q0 16.2-6.2 23.5-6.1 7.3-19.7 7.3h-4.6v-10.2h3.7q8.1 0 11.4-4.5 3.3-4.5 3.3-16.1zm-3.2 0v-83.5h12.1v83.5q0 16.2-6.2 23.5-6.1 7.3-19.8 7.3h-4.6v-10.2h3.8q8 0 11.3-4.5 3.4-4.5 3.4-16.1z"/><path class="b" d="m43.4 120.2v-91h19.8v88.6q0 23.4 8.5 33.8 8.5 10.2 27.5 10.2 19 0 27.5-10.2 8.5-10.4 8.5-33.8v-88.6h19.8v91q0 28.5-14.2 43.1-14 14.5-41.6 14.5-27.6 0-41.8-14.5-14-14.6-14-43.1z"/></svg>